PathFileType  4	(X/Y/Z) C:\Users\antoi\Documents\MyRepositories\mobilecap\ResultsAnalysis
DataRate	CameraRate	NumFrames	NumMarkers	Units	OrigDataRate	OrigDataStartFrame	OrigNumFrames
100.0	100.0	4	51	mm	100.0	92	146
Frame#	Time	r_knee			r_shank_antsup			r_ankle			r_calc			r_5meta			r_toe			L_knee			L_shank_antsup			L_ankle			L_calc			L_5meta			L_toe			r_sh2			r_sh3			r_sh4			L_sh2			L_sh3			r_thigh1			r_thigh2			r_thigh3			r_thigh4			r_thigh5			L_thigh1			L_thigh2			L_thigh3			L_thigh4			r.ASIS			r.PSIS			L.ASIS			L.PSIS			C7			R_Shoulder			L_Shoulder			R_Sternum			L_Sternum			R_humerus			R_elbow_med			R_elbow_lat			R_forearm			R_wrist_radius			R_wrist_ulna			L_humerus			L_elbow_med			L_elbow_lat			L_forearm			L_wrist_radius			L_wrist_ulna			R_HJC			L_HJC			R_HJC_reg			L_HJC_reg			
		X1	Y1	Z1	X2	Y2	Z2	X3	Y3	Z3	X4	Y4	Z4	X5	Y5	Z5	X6	Y6	Z6	X7	Y7	Z7	X8	Y8	Z8	X9	Y9	Z9	X10	Y10	Z10	X11	Y11	Z11	X12	Y12	Z12	X13	Y13	Z13	X14	Y14	Z14	X15	Y15	Z15	X16	Y16	Z16	X17	Y17	Z17	X18	Y18	Z18	X19	Y19	Z19	X20	Y20	Z20	X21	Y21	Z21	X22	Y22	Z22	X23	Y23	Z23	X24	Y24	Z24	X25	Y25	Z25	X26	Y26	Z26	X27	Y27	Z27	X28	Y28	Z28	X29	Y29	Z29	X30	Y30	Z30	X31	Y31	Z31	X32	Y32	Z32	X33	Y33	Z33	X34	Y34	Z34	X35	Y35	Z35	X36	Y36	Z36	X37	Y37	Z37	X38	Y38	Z38	X39	Y39	Z39	X40	Y40	Z40	X41	Y41	Z41	X42	Y42	Z42	X43	Y43	Z43	X44	Y44	Z44	X45	Y45	Z45	X46	Y46	Z46	X47	Y47	Z47	X48	Y48	Z48	X49	Y49	Z49	X50	Y50	Z50	X51	Y51	Z51	

92	0.91000000	1020.23260	565.27646	-58.10388	997.85066	486.02258	-46.47938	736.63795	242.85224	-109.75192	667.19629	228.25875	-170.87708	811.00653	105.72583	-58.24070	862.56981	109.37150	-107.71563	915.93779	538.10105	-349.28652	942.80484	417.06720	-355.66284	867.94071	96.14382	-323.44381	794.66377	55.17150	-291.32788	1024.34794	31.01695	-345.86877	1039.02016	57.41841	-277.93348	924.64803	398.74591	-52.17167	936.74724	535.90863	-40.75696	856.86923	453.07945	-54.02931	854.01250	430.92780	-374.06965	847.42701	310.65267	-370.21685	987.83855	880.35434	-30.15965	1038.32330	783.27281	-36.55719	995.26394	735.32025	-12.19390	886.89621	828.18633	-30.98153	942.95481	727.08770	-29.13625	965.69613	863.91572	-384.39953	981.14484	726.97781	-377.27281	849.92172	847.41845	-389.29175	874.32277	708.71272	-383.30959	966.67237	1053.76589	-87.40281	778.96437	1106.88727	-164.00204	973.21211	1048.85069	-345.59409	778.05141	1105.94960	-267.51742	850.78596	1596.04450	-336.21650	892.65177	1615.53300	-169.61656	911.41206	1531.38090	-468.61905	999.36798	1528.35683	-276.27876	1002.11900	1510.38607	-331.23981	809.95184	1401.95279	-4.17044	764.83451	1297.15020	-50.42654	773.28255	1324.09782	28.19429	847.26106	1191.20316	86.84641	897.13431	1089.56331	110.04878	853.84818	1089.66109	121.67251	885.71766	1271.44372	-540.15004	839.83499	1181.20295	-473.92364	858.92424	1184.48310	-541.20390	926.06339	1024.01297	-559.29752	969.43506	935.91260	-552.28887	930.47575	923.32227	-559.67644	877.77362	981.28964	-92.20227	881.64088	978.39515	-322.51423	890.85883	983.16079	-122.62930	889.35619	981.61664	-293.11062	
93	0.92000000	1035.25480	567.22051	-59.41498	1016.39531	486.68833	-47.62215	766.45681	231.35070	-109.37292	697.05009	212.85368	-169.70408	848.95545	98.50937	-58.89008	899.23661	105.05469	-109.10775	918.59925	537.92061	-349.37002	944.69884	416.73944	-355.59581	868.06551	96.22160	-323.31928	794.61974	55.37150	-291.31226	1024.34877	30.96813	-345.92451	1038.94818	57.30584	-277.98574	947.21123	396.07797	-52.93357	953.10931	533.68360	-41.00136	877.10521	447.40122	-53.82728	856.04395	431.14997	-374.01479	848.74123	310.93161	-370.12538	1000.21503	882.39627	-31.18389	1051.54474	785.79259	-37.96161	1009.31036	737.53318	-13.25625	899.74866	829.13953	-31.17856	956.90788	729.01897	-29.53354	972.83427	863.18739	-384.70318	986.56067	726.19523	-377.42849	856.93208	848.16204	-389.18715	879.52251	709.23376	-383.23793	977.09566	1054.47432	-88.31369	788.98297	1107.55820	-163.92235	982.42150	1048.74300	-346.52324	787.74120	1106.51215	-267.40263	860.60239	1597.21628	-334.96040	902.30081	1615.47049	-168.08999	921.12977	1533.26568	-467.47051	1009.13742	1529.08676	-275.30069	1011.89194	1511.49789	-330.36947	819.77564	1400.69487	-4.12655	775.02456	1296.00401	-51.08216	783.20573	1322.60374	27.73400	857.44131	1189.56046	85.74558	907.54621	1087.98464	108.43982	864.26322	1087.85287	119.99525	901.52299	1273.71097	-541.44399	857.27641	1181.40735	-476.43747	877.23850	1185.94302	-543.51126	949.70859	1028.02234	-562.26461	996.21155	941.23197	-555.32000	957.64352	927.85250	-563.44555	888.10717	982.06717	-92.37684	890.76318	978.56442	-322.69993	900.96331	983.55868	-123.22489	898.91856	981.83560	-293.70234	
94	0.93000000	1049.69980	568.70820	-60.78322	1034.56171	487.06930	-48.81306	797.09256	219.49479	-108.88837	727.94588	197.16531	-168.36178	887.40875	91.33956	-59.46343	936.49159	100.89957	-110.39228	921.32629	537.72259	-349.41527	946.65937	416.41361	-355.50290	868.19310	96.31169	-323.17437	794.56827	55.59290	-291.28584	1024.35745	30.93284	-345.96587	1038.87251	57.17930	-278.01534	969.79183	393.14678	-53.70418	969.09462	530.92346	-41.29565	897.42245	441.11552	-53.56488	858.12957	431.36275	-373.93383	850.09147	311.20616	-370.00959	1012.26149	884.04120	-32.19104	1064.26822	787.80953	-39.39356	1022.76315	739.26907	-14.37524	912.32663	829.91702	-31.51983	970.27913	730.55089	-30.08033	979.97076	862.29752	-384.98426	992.06083	725.34431	-377.50223	863.94599	848.86239	-389.06615	884.71776	709.73804	-383.11981	987.46666	1054.98993	-89.15009	799.02966	1108.10122	-163.84426	991.74146	1048.47235	-347.36021	797.49329	1106.99071	-267.29183	870.35040	1598.26537	-333.62885	911.92394	1615.23721	-166.50314	930.82735	1535.02513	-466.27138	1018.86623	1529.67206	-274.26935	1021.63597	1512.46279	-329.44651	829.58662	1399.24236	-4.05480	785.25603	1294.64231	-51.70632	793.13104	1320.90017	27.27551	867.64991	1187.72667	84.65999	918.00845	1086.23546	106.85456	874.73623	1085.86998	118.33004	917.30103	1276.03776	-542.65513	874.74305	1181.74992	-478.89072	895.48032	1187.58344	-545.74789	973.32948	1032.38779	-565.04677	1022.85712	946.96211	-558.14934	984.75527	932.87166	-567.02279	898.37721	982.67982	-92.52885	899.94675	978.60956	-322.85519	911.04957	983.76049	-123.79524	908.51854	981.93077	-294.26323	
95	0.94000000	1063.54667	569.72539	-62.22548	1052.27826	487.20630	-50.05946	828.54654	207.46954	-108.32524	759.88499	181.40561	-166.91817	926.25234	84.34058	-59.88675	974.31493	97.02542	-111.45329	924.13499	537.51328	-349.45148	948.69658	416.08572	-355.41666	868.31719	96.41783	-323.02072	794.52447	55.81294	-291.24039	1024.37140	30.90896	-345.99669	1038.80589	57.04253	-278.02398	992.34383	390.05451	-54.47244	984.66398	527.67249	-41.71717	917.77412	434.31145	-53.32812	860.28326	431.56710	-373.85995	851.49131	311.47881	-369.90641	1023.96646	885.26663	-33.14394	1076.47955	789.31308	-40.83371	1035.60758	740.50014	-15.51537	924.59921	830.50221	-31.94255	983.02629	731.60148	-30.76185	987.14105	861.30204	-385.23981	997.65243	724.43760	-377.52759	870.95043	849.54166	-388.93913	889.91240	710.23650	-382.98102	997.78356	1055.31008	-89.89149	809.11105	1108.51260	-163.77003	1001.18036	1048.04628	-348.09589	807.31739	1107.38237	-267.18315	880.04782	1599.17457	-332.23170	921.54045	1614.83396	-164.85887	940.51579	1536.67441	-465.02270	1028.57996	1530.12239	-273.18362	1031.37496	1513.29417	-328.46462	839.38807	1397.60328	-3.94781	795.51845	1293.09175	-52.30343	803.06647	1318.99079	26.82663	877.89366	1185.70619	83.58873	928.53282	1084.30963	105.28559	885.26992	1083.70822	116.67548	933.02506	1278.42249	-543.78704	892.18462	1182.25080	-481.27702	913.61924	1189.39812	-547.90201	996.87028	1037.09306	-567.61324	1049.34124	953.10171	-560.71501	1011.75225	938.36059	-570.38416	908.58338	983.12369	-92.65261	909.20509	978.53347	-322.97563	921.11813	983.76487	-124.32475	918.16183	981.90208	-294.78504	
